# xmcd CD database file
#
# Track frame offsets:
#	150
#	10679
#	23276
#	32420
#	49849
#	63241
#	74290
#	88114
#	98082
#	107948
#	118975
#	128618
#
# Disc length: 1901 seconds
#
# Revision: 0
# Processed by: cddbd v1.5.1PL2 Copyright (c) Steve Scherf et al.
# Submitted via: CDex 1.50
#
DISCID=91076b0c
DTITLE=Vernon Oxford - The Oxford Way
DYEAR=2000
DGENRE=Country
TTITLE0=Walkin' My Blues Away
TTITLE1=If Kisses Could Talk
TTITLE2=Gonna Ease My Worried Mind
TTITLE3=The Great Stone Face
TTITLE4=Let Your Light Shine
TTITLE5=I Love To Sing
TTITLE6=No One Is Listening
TTITLE7=I Think Living Is Sweet
TTITLE8=Turn The Record Over
TTITLE9=I Just Want Somebody To Love Me
TTITLE10=Rainy Day
TTITLE11=A Blanket Of Stars
EXTD=YEAR: 2000
EXTT0=
EXTT1=
EXTT2=
EXTT3=
EXTT4=
EXTT5=
EXTT6=
EXTT7=
EXTT8=
EXTT9=
EXTT10=
EXTT11=
PLAYORDER=
